<mxfile host="app.diagrams.net" modified="2020-09-09T12:59:37.977Z" agent="5.0 (Windows NT 10.0; Win64; x64) AppleWebKit/537.36 (KHTML, like Gecko) Chrome/84.0.4147.125 Safari/537.36" etag="K-3iK4flrkHey-h3hoPt" version="13.6.6" type="github">
  <diagram id="Zcp0PBtds6EHcyWxEOg-" name="Page-1">
    <mxGraphModel dx="1632" dy="469" grid="1" gridSize="10" guides="1" tooltips="1" connect="1" arrows="1" fold="1" page="1" pageScale="1" pageWidth="850" pageHeight="1100" math="0" shadow="0">
      <root>
        <mxCell id="0" />
        <mxCell id="1" parent="0" />
        <mxCell id="SDAmGLTB2FB_AqTUOEcF-6" value="AI External Facing App" style="text;html=1;strokeColor=none;fillColor=none;align=center;verticalAlign=middle;whiteSpace=wrap;rounded=0;" vertex="1" parent="1">
          <mxGeometry x="-30" y="250" width="230" height="20" as="geometry" />
        </mxCell>
        <mxCell id="SDAmGLTB2FB_AqTUOEcF-7" value="" style="outlineConnect=0;fontColor=#232F3E;gradientColor=none;fillColor=#232F3E;strokeColor=none;dashed=0;verticalLabelPosition=bottom;verticalAlign=top;align=center;html=1;fontSize=12;fontStyle=0;aspect=fixed;pointerEvents=1;shape=mxgraph.aws4.user;" vertex="1" parent="1">
          <mxGeometry x="40" y="170" width="78" height="78" as="geometry" />
        </mxCell>
        <mxCell id="SDAmGLTB2FB_AqTUOEcF-8" value="" style="shadow=0;dashed=0;html=1;strokeColor=none;fillColor=#4495D1;labelPosition=center;verticalLabelPosition=bottom;verticalAlign=top;align=center;outlineConnect=0;shape=mxgraph.veeam.2d.web_ui;" vertex="1" parent="1">
          <mxGeometry x="57" y="270" width="44.8" height="44.8" as="geometry" />
        </mxCell>
        <mxCell id="SDAmGLTB2FB_AqTUOEcF-10" value="" style="aspect=fixed;html=1;points=[];align=center;image;fontSize=12;image=img/lib/mscae/Azure_AD_B2C.svg;" vertex="1" parent="1">
          <mxGeometry x="300" y="176.79999999999998" width="70" height="64.4" as="geometry" />
        </mxCell>
        <mxCell id="SDAmGLTB2FB_AqTUOEcF-11" value="" style="endArrow=classic;html=1;" edge="1" parent="1" source="SDAmGLTB2FB_AqTUOEcF-7">
          <mxGeometry width="50" height="50" relative="1" as="geometry">
            <mxPoint x="360" y="240" as="sourcePoint" />
            <mxPoint x="290" y="207" as="targetPoint" />
          </mxGeometry>
        </mxCell>
        <mxCell id="SDAmGLTB2FB_AqTUOEcF-12" value="Login" style="text;html=1;strokeColor=none;fillColor=none;align=center;verticalAlign=middle;whiteSpace=wrap;rounded=0;" vertex="1" parent="1">
          <mxGeometry x="170" y="177" width="40" height="20" as="geometry" />
        </mxCell>
        <mxCell id="SDAmGLTB2FB_AqTUOEcF-13" value="" style="endArrow=classic;html=1;" edge="1" parent="1">
          <mxGeometry width="50" height="50" relative="1" as="geometry">
            <mxPoint x="360" y="187" as="sourcePoint" />
            <mxPoint x="550" y="90" as="targetPoint" />
          </mxGeometry>
        </mxCell>
        <mxCell id="SDAmGLTB2FB_AqTUOEcF-14" value="" style="endArrow=classic;html=1;exitX=0.99;exitY=0.433;exitDx=0;exitDy=0;exitPerimeter=0;" edge="1" parent="1" source="SDAmGLTB2FB_AqTUOEcF-10">
          <mxGeometry width="50" height="50" relative="1" as="geometry">
            <mxPoint x="360" y="240" as="sourcePoint" />
            <mxPoint x="580" y="205" as="targetPoint" />
          </mxGeometry>
        </mxCell>
        <mxCell id="SDAmGLTB2FB_AqTUOEcF-15" value="" style="endArrow=classic;html=1;" edge="1" parent="1">
          <mxGeometry width="50" height="50" relative="1" as="geometry">
            <mxPoint x="370" y="230" as="sourcePoint" />
            <mxPoint x="570" y="330" as="targetPoint" />
          </mxGeometry>
        </mxCell>
        <mxCell id="SDAmGLTB2FB_AqTUOEcF-16" value="" style="dashed=0;outlineConnect=0;html=1;align=center;labelPosition=center;verticalLabelPosition=bottom;verticalAlign=top;shape=mxgraph.webicons.facebook;fillColor=#6294E4;gradientColor=#1A2665" vertex="1" parent="1">
          <mxGeometry x="590" y="60" width="60" height="50" as="geometry" />
        </mxCell>
        <mxCell id="SDAmGLTB2FB_AqTUOEcF-17" value="" style="dashed=0;outlineConnect=0;html=1;align=center;labelPosition=center;verticalLabelPosition=bottom;verticalAlign=top;shape=mxgraph.weblogos.google" vertex="1" parent="1">
          <mxGeometry x="590" y="181" width="65.2" height="69.4" as="geometry" />
        </mxCell>
        <mxCell id="SDAmGLTB2FB_AqTUOEcF-18" value="Text" style="text;html=1;strokeColor=none;fillColor=none;align=center;verticalAlign=middle;whiteSpace=wrap;rounded=0;" vertex="1" parent="1">
          <mxGeometry x="360" y="210" width="40" height="20" as="geometry" />
        </mxCell>
        <mxCell id="SDAmGLTB2FB_AqTUOEcF-19" value="Local User" style="rounded=1;whiteSpace=wrap;html=1;" vertex="1" parent="1">
          <mxGeometry x="590" y="310" width="120" height="60" as="geometry" />
        </mxCell>
      </root>
    </mxGraphModel>
  </diagram>
</mxfile>
